# xmcd
#
# Track frame offsets: 
#        150
#        18617
#        37138
#
# Disc length: 739 seconds
#
# Revision: 2
# Processed by: cddbd v1.5.2PL0 Copyright (c) Steve Scherf et al.
# Submitted via: ExactAudioCopy v1.3
#
DISCID=2202e103
DTITLE=Pussycat Dolls - Buttons
DYEAR=2006
DGENRE=R&B
TTITLE0=Buttons (Collipark Remix Clean)
TTITLE1=Buttons (Collipark Remix Dirty)
TTITLE2=Buttons (Collipark Remix Instrumental)
EXTD=YEAR: 2006
EXTT0=
EXTT1=
EXTT2=
PLAYORDER=
